Coordinates
version=1
nRows=14
nColumns=24
inDegrees=yes

Units are S.I. units (second, meters, Newtons, ...)
Angles are in degrees.

endheader
time	pelvis_tilt	pelvis_list	pelvis_rotation	pelvis_tx	pelvis_ty	pelvis_tz	hip_flexion_r	hip_adduction_r	hip_rotation_r	knee_angle_r	ankle_angle_r	subtalar_angle_r	mtp_angle_r	hip_flexion_l	hip_adduction_l	hip_rotation_l	knee_angle_l	ankle_angle_l	subtalar_angle_l	mtp_angle_l	lumbar_extension	lumbar_bending	lumbar_rotation
      4.36000000	     -5.63592782	      4.48461018	     -3.01576775	      0.91443020	      0.69345663	     -0.09894475	     23.17353781	     -2.20878182	      4.48937869	    -67.25243614	     12.94974788	      7.11813528	      0.00000000	     10.03771101	     13.57550341	     15.51587227	    -13.21788754	      9.74762746	    -24.17646830	      0.00000000	    -10.50064405	     -7.89132192	      2.26243536
      4.37000000	     -5.57547129	      3.87313965	     -2.76725042	      0.92762327	      0.69555978	     -0.09902103	     24.94782932	     -1.38794780	      3.99578228	    -66.36766068	     13.68720393	      4.60116317	      0.00000000	      7.37602385	     12.85910050	     18.10406081	    -10.91128366	      7.41167856	    -27.71842124	      0.00000000	    -10.68000456	     -7.14939495	      1.85359875
      4.38000000	     -5.55189264	      3.22035980	     -2.53036808	      0.94062675	      0.69732422	     -0.09880445	     26.65331846	     -0.44893031	      3.59258274	    -65.09800965	     14.09597160	      2.12972380	      0.00000000	      4.93527280	     11.97806276	     19.99052042	     -8.79557345	      5.30850127	    -30.67914834	      0.00000000	    -10.87017191	     -6.42295349	      1.43009071
      4.39000000	     -5.63920292	      2.66035851	     -2.07887580	      0.95339357	      0.69865906	     -0.09865163	     28.36467603	      0.30165917	      3.04298750	    -63.47000961	     14.23752556	     -0.26450761	      0.00000000	      2.88302594	     11.16966762	     21.15208365	     -7.06183397	      3.86601923	    -32.39242716	      0.00000000	    -11.00621854	     -5.84609285	      0.75506582
      4.40000000	     -5.70326520	      2.11528227	     -1.64648933	      0.96623090	      0.69977096	     -0.09850891	     29.86148981	      1.00936714	      2.57888960	    -61.38777769	     14.30764049	     -2.25921673	      0.00000000	      0.89880353	     10.35604295	     21.87062273	     -5.43836693	      2.51527958	    -33.77931473	      0.00000000	    -11.13975788	     -5.26402988	      0.19732031
      4.41000000	     -5.81751857	      1.69436750	     -1.12877798	      0.97899543	      0.70053516	     -0.09839867	     31.25710026	      1.52414707	      2.14365499	    -58.92315612	     14.28823890	     -3.93297200	      0.00000000	     -0.88052702	      9.66698508	     22.27552197	     -4.05112800	      1.65328151	    -34.33893536	      0.00000000	    -11.23208194	     -4.85625941	     -0.47191137
      4.42000000	     -6.00165526	      1.37424127	     -0.63567421	      0.99177978	      0.70092790	     -0.09828582	     32.54559873	      1.92142322	      1.84875071	    -56.04868395	     14.23811640	     -5.25050535	      0.00000000	     -2.48702686	      9.07877234	     22.45655856	     -2.82427284	      1.11816039	    -34.36470834	      0.00000000	    -11.22096880	     -4.56128192	     -1.13468197
      4.43000000	     -6.00095794	      1.03941809	     -0.05304536	      1.00467020	      0.70136170	     -0.09841703	     33.35751218	      2.20062837	      1.46996572	    -52.64859643	     14.25874508	     -6.09127180	      0.00000000	     -4.23189553	      8.47639516	     22.61801498	     -1.70834502	      0.47092517	    -34.42735691	      0.00000000	    -11.43772342	     -4.21062225	     -1.84659837
      4.44000000	     -6.26628046	      0.79954857	      0.42034922	      1.01766306	      0.70115890	     -0.09850283	     34.25276797	      2.41852549	      1.31914508	    -48.85170514	     14.35529991	     -6.47798829	      0.00000000	     -5.61107829	      7.97071184	     22.67628230	     -0.74802411	      0.11488365	    -34.05718157	      0.00000000	    -11.26640817	     -3.95167990	     -2.39051247
      4.45000000	     -6.13429607	      0.56619841	      1.00814350	      1.03071777	      0.70126279	     -0.09873766	     34.40535271	      2.55988480	      1.19366548	    -44.51326105	     14.37658548	     -6.73515095	      0.00000000	     -7.35868422	      7.43257396	     22.91069935	      0.09491602	     -0.22673578	    -33.60504826	      0.00000000	    -11.62242103	     -3.69100007	     -3.18442351
      4.46000000	     -6.12660516	      0.39226308	      1.51483689	      1.04400961	      0.70089068	     -0.09902746	     34.43717565	      2.64013795	      1.20727535	    -39.76919624	     14.50639756	     -6.59993092	      0.00000000	     -8.91277576	      6.96862584	     23.04536096	      0.80203286	     -0.45202022	    -32.99491116	      0.00000000	    -11.74713601	     -3.45798480	     -3.77815405
      4.47000000	     -6.02777755	      0.29554889	      2.03399325	      1.05745540	      0.70033099	     -0.09944718	     34.09822396	      2.62435901	      1.38590207	    -34.64004947	     14.62392769	     -6.29559870	      0.00000000	    -10.47961902	      6.59160575	     23.18635030	      1.32589339	     -0.56305971	    -32.24096823	      0.00000000	    -11.97733710	     -3.27086553	     -4.41089822
      4.48000000	     -5.83779188	      0.29986690	      2.54742749	      1.07112466	      0.69952797	     -0.09997459	     33.42036206	      2.50320008	      1.80678841	    -29.24996808	     14.69324890	     -5.89608703	      0.00000000	    -12.07154292	      6.32993171	     23.33483406	      1.66722964	     -0.55153317	    -31.38940676	      0.00000000	    -12.28627492	     -3.15700491	     -5.03755144
      4.49000000	     -5.84822070	      0.41086645	      3.16061280	      1.08510896	      0.69813308	     -0.10069304	     32.77611728	      2.18402863	      2.31241586	    -23.78961669	     14.64935721	     -5.51993841	      0.00000000	    -13.39401103	      6.15787618	     23.75219563	      1.84282447	     -0.49483852	    -30.53146096	      0.00000000	    -12.26268094	     -3.14342134	     -5.71952130
